<svg width="300" height="300" xmlns="http://www.w3.org/2000/svg">
 <g>
  <title>background</title>
  <rect x="-1" y="-1" width="302" height="302" id="canvas_background" fill="none"/>
 </g>

 <g>
  <title>Layer 1</title>
  <g stroke="null" id="XMLID_496_">
   <path stroke="null" id="XMLID_497_" d="m7.52183,151.506158l58.987502,21.651449l22.831786,72.210962c1.460909,4.624855 7.211519,6.334306 11.028478,3.265338l32.880635,-26.361061c3.44661,-2.761823 8.35583,-2.899454 11.957749,-0.328129l59.304951,42.343699c4.083199,2.918751 9.867948,0.718361 10.891948,-4.133916l43.444044,-205.513431c1.11786,-5.30041 -4.177919,-9.722173 -9.309868,-7.770181l-242.086345,91.84328c-5.974189,2.26585 -5.922129,10.584039 0.06912,12.791989zm78.139718,10.12583l115.283594,-69.827617c2.071899,-1.25125 4.203519,1.503852 2.424329,3.126868l-95.142385,86.975071c-3.34421,3.061417 -5.501439,7.158408 -6.11242,11.60535l-3.24096,23.620222c-0.42923,3.153733 -4.933979,3.466751 -5.818879,0.414572l-12.464638,-43.072128c-1.427629,-4.912703 0.6528,-10.160247 5.071359,-12.842338z" fill="#aee1eb"/>
  </g>
  <g id="svg_1"/>
  <g id="svg_2"/>
  <g id="svg_3"/>
  <g id="svg_4"/>
  <g id="svg_5"/>
  <g id="svg_6"/>
  <g id="svg_7"/>
  <g id="svg_8"/>
  <g id="svg_9"/>
  <g id="svg_10"/>
  <g id="svg_11"/>
  <g id="svg_12"/>
  <g id="svg_13"/>
  <g id="svg_14"/>
  <g id="svg_15"/>
 </g>
</svg>